<?xml version="1.0" encoding="UTF-8"?>
<svg version="1.1" xmlns="http://www.w3.org/2000/svg" width="512" height="512">
<path d="M0 0 C1.01790619 0.00215515 2.03581238 0.0043103 3.08456421 0.00653076 C17.69363523 0.05620146 32.02575853 0.30709809 46.375 3.3125 C47.34985352 3.51117676 48.32470703 3.70985352 49.32910156 3.91455078 C97.7109774 14.03517194 141.69928269 35.9516877 177.375 70.3125 C178.3640332 71.26068604 178.3640332 71.26068604 179.37304688 72.22802734 C188.86130305 81.37247479 197.6012044 90.66984009 205.375 101.3125 C206.23306152 102.46355017 207.09113451 103.61459177 207.94921875 104.765625 C213.98736829 112.95680614 219.34595521 121.47054105 224.375 130.3125 C224.73948242 130.94430176 225.10396484 131.57610352 225.47949219 132.22705078 C247.08534998 169.97532572 256.85198095 212.74189997 256.6875 255.9375 C256.68534485 256.95540619 256.6831897 257.97331238 256.68096924 259.02206421 C256.63129854 273.63113523 256.38040191 287.96325853 253.375 302.3125 C253.07698486 303.77478027 253.07698486 303.77478027 252.77294922 305.26660156 C242.65232806 353.6484774 220.7358123 397.63678269 186.375 433.3125 C185.74287598 433.97185547 185.11075195 434.63121094 184.45947266 435.31054688 C175.31502521 444.79880305 166.01765991 453.5387044 155.375 461.3125 C154.22394983 462.17056152 153.07290823 463.02863451 151.921875 463.88671875 C143.73224019 469.92427396 135.22961724 475.30707302 126.375 480.3125 C125.66778809 480.7146875 124.96057617 481.116875 124.23193359 481.53125 C101.09654164 494.5566741 75.92537591 503.30551461 49.9375 508.625 C49.21860596 508.77235596 48.49971191 508.91971191 47.7590332 509.0715332 C33.08339502 511.86090125 18.55831162 512.66142619 3.64770508 512.62817383 C0.70811513 512.6250221 -2.2304558 512.64854926 -5.16992188 512.67382812 C-18.54306192 512.71848737 -31.43916711 511.51301542 -44.625 509.3125 C-46.33055054 509.03031616 -46.33055054 509.03031616 -48.07055664 508.74243164 C-91.33802759 500.97044532 -132.38793216 480.98345309 -165.625 452.3125 C-166.37007813 451.67828125 -167.11515625 451.0440625 -167.8828125 450.390625 C-181.38779833 438.57948485 -194.05918743 425.82889772 -204.625 411.3125 C-205.48149066 410.16255169 -206.33826433 409.01281411 -207.1953125 407.86328125 C-213.23534209 399.67315742 -218.61867614 391.16870382 -223.625 382.3125 C-224.0271875 381.60528809 -224.429375 380.89807617 -224.84375 380.16943359 C-237.8691741 357.03404164 -246.61801461 331.86287591 -251.9375 305.875 C-252.08485596 305.15610596 -252.23221191 304.43721191 -252.3840332 303.6965332 C-255.35789088 288.05024391 -255.99800362 272.57681954 -255.9375 256.6875 C-255.93534485 255.66959381 -255.9331897 254.65168762 -255.93096924 253.60293579 C-255.88129854 238.99386477 -255.63040191 224.66174147 -252.625 210.3125 C-252.42632324 209.33764648 -252.22764648 208.36279297 -252.02294922 207.35839844 C-241.90232806 158.9765226 -219.9858123 114.98821731 -185.625 79.3125 C-184.99287598 78.65314453 -184.36075195 77.99378906 -183.70947266 77.31445312 C-174.56502521 67.82619695 -165.26765991 59.0862956 -154.625 51.3125 C-153.47394983 50.45443848 -152.32290823 49.59636549 -151.171875 48.73828125 C-142.98224019 42.70072604 -134.47961724 37.31792698 -125.625 32.3125 C-124.91778809 31.9103125 -124.21057617 31.508125 -123.48193359 31.09375 C-100.34654164 18.0683259 -75.17537591 9.31948539 -49.1875 4 C-48.46860596 3.85264404 -47.74971191 3.70528809 -47.0090332 3.5534668 C-31.36274391 0.57960912 -15.88931954 -0.06050362 0 0 Z " fill="#6C7FD8" transform="translate(255.625,-0.3125)"/>
<path d="M0 0 C70.51866914 -1.21810085 136.56101542 20.45690942 188 70 C188.9890332 70.94818604 188.9890332 70.94818604 189.99804688 71.91552734 C199.48630305 81.05997479 208.2262044 90.35734009 216 101 C216.85806152 102.15105017 217.71613451 103.30209177 218.57421875 104.453125 C224.61236829 112.64430614 229.97095521 121.15804105 235 130 C235.36448242 130.63180176 235.72896484 131.26360352 236.10449219 131.91455078 C257.71034998 169.66282572 267.47698095 212.42939997 267.3125 255.625 C267.31034485 256.64290619 267.3081897 257.66081238 267.30596924 258.70956421 C267.25629854 273.31863523 267.00540191 287.65075853 264 302 C263.70198486 303.46228027 263.70198486 303.46228027 263.39794922 304.95410156 C253.27732806 353.3359774 231.3608123 397.32428269 197 433 C196.36787598 433.65935547 195.73575195 434.31871094 195.08447266 434.99804688 C185.94002521 444.48630305 176.64265991 453.2262044 166 461 C164.84894983 461.85806152 163.69790823 462.71613451 162.546875 463.57421875 C154.35724019 469.61177396 145.85461724 474.99457302 137 480 C136.29278809 480.4021875 135.58557617 480.804375 134.85693359 481.21875 C111.72154164 494.2441741 86.55037591 502.99301461 60.5625 508.3125 C59.84360596 508.45985596 59.12471191 508.60721191 58.3840332 508.7590332 C43.72427734 511.54538253 29.32028425 512.28080989 14.4375 512.125 C12.73242724 512.11493099 11.0273486 512.1058122 9.32226562 512.09765625 C5.21469365 512.07599708 1.10741544 512.04169314 -3 512 C-3 511.67 -3 511.34 -3 511 C-2.17612793 510.90501221 -1.35225586 510.81002441 -0.50341797 510.7121582 C57.6366683 503.90044597 107.69989285 483.70430414 152 445 C153.37671875 443.80890625 153.37671875 443.80890625 154.78125 442.59375 C159.2613463 438.65342434 163.40044876 434.63182136 167.2421875 430.06640625 C169.1594734 427.81253016 171.17062201 425.66507153 173.1875 423.5 C201.50937461 391.96191251 221.15331252 351.34208102 230 310 C230.41185547 308.08574219 230.41185547 308.08574219 230.83203125 306.1328125 C231.66192044 302.10478925 232.35660435 298.06161645 233 294 C233.20753906 292.70320313 233.41507813 291.40640625 233.62890625 290.0703125 C238.04744436 258.37680178 235.15974995 225.98498297 228 195 C227.80535156 194.14873535 227.61070312 193.2974707 227.41015625 192.42041016 C218.04374105 152.20134626 197.09595587 114.67167937 169.18359375 84.37109375 C167.67708266 82.73522214 166.19119007 81.08020415 164.72265625 79.41015625 C160.10584026 74.16198081 155.35680923 69.47788543 150 65 C149.07832031 64.19046875 148.15664063 63.3809375 147.20703125 62.546875 C119.1965938 38.05222424 84.88449763 19.83703114 49 10 C48.2476709 9.7927832 47.4953418 9.58556641 46.72021484 9.37207031 C31.35315394 5.23201437 15.76627554 3.02864115 0 1 C0 0.67 0 0.34 0 0 Z " fill="#4F66D0" transform="translate(245,0)"/>
<path d="M0 0 C2.69915364 8.86700684 5.23957254 17.74446664 7.4375 26.75 C9.13849603 33.71579111 10.99570797 40.61538762 13 47.5 C14.97949437 54.30227391 16.82002935 61.11760512 18.5 68 C20.15983498 74.79938829 21.97739889 81.53109671 23.9375 88.25 C26.42892809 96.79751483 28.62687151 105.39549488 30.74536133 114.04223633 C32.6091261 121.58929558 34.69725422 129.05157048 36.87744141 136.51245117 C39.2224428 144.60732089 41.16760872 152.7757968 43 161 C41.7636832 161.89422914 40.51028438 162.76487891 39.25 163.625 C38.55390625 164.11226562 37.8578125 164.59953125 37.140625 165.1015625 C35 166 35 166 33.16913986 165.34404945 C30.446756 163.65719716 28.41699258 161.66244453 26.15313721 159.39364624 C25.68011099 158.92232887 25.20708477 158.4510115 24.71972442 157.96541178 C23.13811205 156.38709002 21.56374771 154.80173322 19.98925781 153.21630859 C18.85610692 152.08259349 17.72251532 150.94931873 16.58851624 149.81645203 C13.51204264 146.74055258 10.44177726 143.65852279 7.37257862 140.5753665 C4.16372462 137.35401551 0.94921127 134.1383221 -2.26470947 130.92202759 C-8.34951406 124.83100521 -14.42920215 118.73490221 -20.50707459 112.63696349 C-27.42691115 105.69477728 -34.35242317 98.75826482 -41.27842093 91.82222629 C-55.52527744 77.55446098 -69.76498128 63.27957531 -84 49 C-80.86775208 45.18940803 -77.88739284 41.77917704 -74.0625 38.625 C-73.24910156 37.93664062 -72.43570313 37.24828125 -71.59765625 36.5390625 C-68.43815941 34.66712001 -66.61639548 34.53193791 -63 35 C-61.48648936 36.1914871 -59.97574159 37.39141204 -58.55078125 38.6875 C-53.86813992 42.65064229 -48.56279354 43.61816096 -42.62109375 43.41015625 C-35.44800414 42.28769066 -29.81662408 38.56880411 -25.25390625 33.0390625 C-21.06693074 26.23033598 -20.68427784 21.36664519 -21.29296875 13.609375 C-21.3828125 11.546875 -21.3828125 11.546875 -21 8 C-17.57934632 4.98177617 -13.08449334 3.81152401 -8.8125 2.3125 C-7.58144531 1.87550781 -6.35039062 1.43851563 -5.08203125 0.98828125 C-2 0 -2 0 0 0 Z " fill="#FDFDFE" transform="translate(193,50)"/>
<path d="M0 0 C2.90212286 3.38581001 4.29395475 5.73488687 6 10 C-32.61 48.61 -71.22 87.22 -111 127 C-115.03106495 123.6407792 -118.13449947 120.99207248 -121.375 117.0625 C-122.06335938 116.24910156 -122.75171875 115.43570313 -123.4609375 114.59765625 C-125.33226493 111.43919752 -125.46853148 109.61509027 -125 106 C-123.80399304 104.51307243 -122.6001227 103.02943108 -121.3125 101.62109375 C-117.58985893 97.02318886 -116.35876178 91.18051863 -116.58984375 85.36328125 C-117.80046148 78.3878172 -121.51255041 72.42258999 -127.14453125 68.18359375 C-134.33171506 63.59892702 -140.47617078 63.83794109 -148.70703125 64.3828125 C-152 64 -152 64 -153.78125 61.94140625 C-155.17095494 58.58740682 -156.48516316 55.23897946 -157.6875 51.8125 C-158.12449219 50.58144531 -158.56148437 49.35039062 -159.01171875 48.08203125 C-160 45 -160 45 -160 43 C-150.47937177 40.07654622 -140.92358929 37.43422513 -131.25 35.0625 C-122.65673186 32.95490935 -114.14659022 30.65780081 -105.65332031 28.17993164 C-98.98004932 26.24589775 -92.26746791 24.54167531 -85.51855469 22.89428711 C-79.46870005 21.40320103 -73.48241527 19.74082099 -67.5 18 C-59.88140416 15.78306738 -52.23605407 13.77798198 -44.52832031 11.89672852 C-37.50545373 10.16588625 -30.56529357 8.19150324 -23.62036133 6.17333984 C-15.79508596 3.91052058 -7.91930734 1.90421817 0 0 Z " fill="#FDFDFE" transform="translate(210,276)"/>
<path d="M0 0 C6.36812971 5.25247662 12.16401009 11.02930705 17.98413086 16.87060547 C19.07853052 17.96528763 20.17315127 19.05974878 21.26797485 20.15400696 C24.22218814 23.10793473 27.17331998 26.06492341 30.12388682 29.02249289 C33.21438163 32.11926232 36.30773104 35.21317768 39.40077209 38.30740356 C45.24972506 44.15945777 51.09612542 50.01405518 56.94160134 55.8695823 C63.59987052 62.5390502 70.26099814 69.20566014 76.92236125 75.87203765 C90.61807891 89.57819234 104.31022274 103.28791213 118 117 C116.52069807 120.96479572 114.76352943 123.77588233 112 127 C102.52978001 124.69855047 93.07702789 122.3965655 83.75 119.5625 C76.88566252 117.48067244 69.96601168 115.70889051 63 114 C56.19999336 112.33167539 49.44592654 110.61034876 42.75 108.5625 C35.23335763 106.26699844 27.63064218 104.37749195 20 102.5 C11.70932091 100.46010835 3.48112513 98.34477845 -4.68261719 95.84594727 C-11.8415876 93.68426409 -19.10515508 91.95422747 -26.36621094 90.1730957 C-33.6695499 88.36848474 -40.85737759 86.37157385 -48 84 C-47.38872122 79.46692139 -46.2166879 75.51063826 -44.5625 71.25 C-44.13066406 70.12078125 -43.69882812 68.9915625 -43.25390625 67.828125 C-42 65 -42 65 -40 63 C-37.47662764 62.98526068 -35.01595454 63.06104275 -32.5 63.1875 C-24.32310911 63.37844639 -18.41342713 61.96173309 -12.16796875 56.35546875 C-6.85822735 50.63231683 -4.34711876 44.44983326 -4.57421875 36.6328125 C-5.39176016 31.57755646 -7.68935138 25.95349919 -11.66796875 22.58984375 C-13 21 -13 21 -13.55859375 18.26953125 C-12.75511011 13.56662348 -10.24030823 11.11780151 -7.0625 7.6875 C-6.49853516 7.05521484 -5.93457031 6.42292969 -5.35351562 5.77148438 C-1.79225128 1.79225128 -1.79225128 1.79225128 0 0 Z " fill="#FDFDFE" transform="translate(98,109)"/>
<path d="M0 0 C18.07692308 5.07692308 18.07692308 5.07692308 21 8 C20.9577123 9.75705382 20.91000691 11.51417666 20.83227539 13.27001953 C20.49233654 22.22544113 21.4310361 28.91010909 27.64453125 35.83203125 C33.09842549 40.89196473 39.10309108 43.62482464 46.59375 43.35546875 C52.06744111 42.54685529 57.31219608 40.68780392 61.25 36.75 C63 35 63 35 65.6484375 34.52734375 C70.43417414 35.20225533 72.86718973 37.63789509 76.375 40.8125 C77.01566406 41.35970703 77.65632813 41.90691406 78.31640625 42.47070312 C81.76678988 45.5054222 81.76678988 45.5054222 83 47 C83 50 83 50 81.18838501 52.18075848 C80.33296112 53.03341699 79.47753723 53.8860755 78.59619141 54.76457214 C78.12249933 55.24082749 77.64880726 55.71708284 77.16076088 56.20777017 C75.56474802 57.80874158 73.95821582 59.39872592 72.3515625 60.98901367 C71.20807578 62.13165457 70.06524848 63.27495569 68.92303467 64.41886902 C65.81411463 67.52865218 62.69601074 70.629079 59.57622528 73.72795653 C56.31972825 76.96573952 53.07168689 80.21198185 49.82275391 83.45735168 C43.66636321 89.60440639 37.50236294 95.74377185 31.33561897 101.88043815 C24.31655678 108.86600465 17.30597948 115.86005979 10.29611588 122.85485494 C-4.12647531 137.24606192 -18.55973384 151.62652977 -33 166 C-37.455 163.525 -37.455 163.525 -42 161 C-41.66899308 154.04885478 -40.19030555 147.84030792 -38.1496582 141.22680664 C-36.20626319 134.86915803 -34.57704488 128.45740747 -33 122 C-31.14595905 114.43890639 -29.16215351 106.95829766 -26.89453125 99.51171875 C-25.05709243 93.39082383 -23.52247365 87.20578223 -22 81 C-20.33166622 74.19999607 -18.61034883 67.44592676 -16.5625 60.75 C-14.26699665 53.23335177 -12.37758008 45.63062641 -10.5 38 C-7.93269667 27.57041699 -5.13449411 17.27221851 -2 7 C-1.32374093 4.66927057 -0.66078874 2.33518554 0 0 Z " fill="#FDFDFE" transform="translate(319,50)"/>
<path d="M0 0 C3.57770548 1.38297859 6.74845193 2.95616979 10 5 C9.76925781 5.92296875 9.53851563 6.8459375 9.30078125 7.796875 C9.0689917 8.72439575 9.0689917 8.72439575 8.83251953 9.6706543 C8.47848444 11.08629603 8.12397361 12.50181886 7.76904297 13.91723633 C6.77912335 17.86800809 5.79763327 21.82055354 4.83203125 25.77734375 C2.52088625 35.2034867 0.01669657 44.54443583 -2.69873047 53.86206055 C-4.62614141 60.53797818 -6.34535823 67.25174187 -8 74 C-10.08664456 82.51012974 -12.36656313 90.93660814 -14.8203125 99.34765625 C-16.51705913 105.2018763 -18.05432908 111.0790802 -19.5 117 C-21.83411311 126.54530899 -24.51885035 135.97206178 -27.25488281 145.40869141 C-28.4894623 149.70221259 -29.68344126 154.00687482 -30.875 158.3125 C-31.19791016 159.47869873 -31.19791016 159.47869873 -31.52734375 160.66845703 C-32.0188967 162.4454535 -32.50955962 164.22269614 -33 166 C-38.03148104 164.82544145 -42.67074813 163.47171895 -47.4375 161.4375 C-48.98244141 160.78587891 -48.98244141 160.78587891 -50.55859375 160.12109375 C-53 159 -53 159 -54 158 C-53.9577123 156.24294618 -53.91000691 154.48582334 -53.83227539 152.72998047 C-53.49233654 143.77455887 -54.4310361 137.08989091 -60.64453125 130.16796875 C-66.36768317 124.85822735 -72.55016674 122.34711876 -80.3671875 122.57421875 C-85.42244354 123.39176016 -91.04650081 125.68935138 -94.41015625 129.66796875 C-96 131 -96 131 -98.7265625 131.55078125 C-103.41961785 130.76113829 -105.91390083 128.31983088 -109.375 125.1875 C-110.01566406 124.64029297 -110.65632813 124.09308594 -111.31640625 123.52929688 C-114.76678988 120.4945778 -114.76678988 120.4945778 -116 119 C-116 116 -116 116 -114.18838501 113.81924152 C-113.33296112 112.96658301 -112.47753723 112.1139245 -111.59619141 111.23542786 C-111.12249933 110.75917251 -110.64880726 110.28291716 -110.16076088 109.79222983 C-108.56474802 108.19125842 -106.95821582 106.60127408 -105.3515625 105.01098633 C-104.20807578 103.86834543 -103.06524848 102.72504431 -101.92303467 101.58113098 C-98.81411463 98.47134782 -95.69601074 95.370921 -92.57622528 92.27204347 C-89.31972825 89.03426048 -86.07168689 85.78801815 -82.82275391 82.54264832 C-76.66636321 76.39559361 -70.50236294 70.25622815 -64.33561897 64.11956185 C-57.31655678 57.13399535 -50.30597948 50.13994021 -43.29611588 43.14514506 C-28.87352469 28.75393808 -14.44026616 14.37347023 0 0 Z " fill="#FDFDFE" transform="translate(226,296)"/>
<path d="M0 0 C3.23248969 1.62251256 5.33260825 4.40381139 7.61950302 7.12587643 C8.12610458 7.69113033 8.63270615 8.25638424 9.15465927 8.83876705 C11.60604106 11.72293996 12.78505294 13.35909078 13.34215927 17.18056393 C12.78352945 20.44000732 11.3723426 21.97946615 9.18200302 24.38759518 C5.21886073 29.07023651 4.25134206 34.37558288 4.45934677 40.31728268 C5.58181236 47.49037229 9.30069891 53.12175234 14.83044052 57.68447018 C21.63916704 61.87144568 26.50285783 62.25409859 34.26012802 61.64540768 C36.32262802 61.55556393 36.32262802 61.55556393 39.86950302 61.93837643 C41.68590927 64.03212643 41.68590927 64.03212643 42.86950302 66.93837643 C43.5559288 68.53552486 43.5559288 68.53552486 44.25622177 70.16493893 C44.68547958 71.2864233 45.1147374 72.40790768 45.55700302 73.56337643 C45.99399521 74.69001705 46.4309874 75.81665768 46.88122177 76.97743893 C47.86950302 79.93837643 47.86950302 79.93837643 47.86950302 82.93837643 C34.35802638 86.72647776 20.81448994 90.38994778 7.26159286 94.02675533 C3.917865 94.92537919 0.57515672 95.82769415 -2.76721573 96.73134518 C-14.16789375 99.81196834 -25.57828582 102.84683471 -37.01013565 105.80971432 C-43.45459649 107.48568879 -49.87314199 109.23965208 -56.28259659 111.04433346 C-63.3770558 113.0315104 -70.51075874 114.86056199 -77.64490128 116.69911861 C-84.31437014 118.43074996 -90.91950646 120.32248267 -97.5152626 122.31410885 C-102.68330899 123.85596047 -107.82047414 125.01122958 -113.13049698 125.93837643 C-114.78049698 122.63837643 -116.43049698 119.33837643 -118.13049698 115.93837643 C-103.09024078 100.7814485 -88.03578584 85.63875633 -72.96417999 70.51299858 C-65.96689747 63.48990689 -58.97438153 56.46218845 -51.99280167 49.42348385 C-45.9094269 43.29035736 -39.81738802 37.16599621 -33.71467376 31.05211073 C-30.48199856 27.81290288 -27.25390699 24.56940111 -24.03614426 21.31537342 C-21.00997361 18.25537358 -17.9723934 15.20719351 -14.92549515 12.16783619 C-13.80688304 11.04784368 -12.69257904 9.92352994 -11.58286667 8.79471874 C-10.07158919 7.25870816 -8.54583653 5.73873892 -7.01532364 4.2219305 C-6.16358692 3.36558482 -5.3118502 2.50923914 -4.43430328 1.62694359 C-2.13049698 -0.06162357 -2.13049698 -0.06162357 0 0 Z " fill="#FDFDFE" transform="translate(414.13049697875977,110.06162357330322)"/>
<path d="M0 0 C6.31919177 5.22509599 12.10185893 10.93288161 17.90820312 16.71533203 C18.99441662 17.79362992 20.08080658 18.87175006 21.1673584 19.94970703 C24.70902335 23.46536197 28.24542468 26.98628592 31.78125 30.5078125 C33.00186033 31.72305806 34.22247702 32.93829724 35.44309998 34.15353012 C40.51538037 39.20422973 45.58624063 44.25634797 50.65338898 49.31219673 C57.9076575 56.55017655 65.17032445 63.77949214 72.44477892 70.99718583 C77.56695765 76.08075185 82.67959817 81.17378465 87.78515577 86.27404296 C90.83335576 89.31858312 93.88562964 92.35876448 96.94813538 95.38891983 C99.82202209 98.23287189 102.68396675 101.0883063 105.53700256 103.95317078 C106.58766315 105.0040532 107.64264232 106.05063758 108.70211792 107.09263229 C110.14331121 108.51132187 111.56783924 109.946883 112.99133301 111.3833313 C114.19584484 112.58287791 114.19584484 112.58287791 115.42469025 113.80665779 C117 116 117 116 116.92119598 118.11373711 C115.33138912 121.36906361 112.53687952 123.46116076 109.8125 125.75 C109.24724609 126.25660156 108.68199219 126.76320313 108.09960938 127.28515625 C105.21543647 129.73653804 103.57928565 130.91554992 99.7578125 131.47265625 C96.49836911 130.91402643 94.95891028 129.50283958 92.55078125 127.3125 C87.86813992 123.34935771 82.56279354 122.38183904 76.62109375 122.58984375 C69.44800414 123.71230934 63.81662408 127.43119589 59.25390625 132.9609375 C55.06693074 139.76966402 54.68427784 144.63335481 55.29296875 152.390625 C55.3828125 154.453125 55.3828125 154.453125 55 158 C51.57934632 161.01822383 47.08449334 162.18847599 42.8125 163.6875 C41.58144531 164.12449219 40.35039062 164.56148437 39.08203125 165.01171875 C36 166 36 166 34 166 C28.77458773 147.36189357 23.71455723 128.67958522 18.875 109.9375 C17.02213195 102.76377716 15.04007178 95.65119004 12.89404297 88.56030273 C10.75752179 81.39061435 9.01272926 74.12770709 7.23046875 66.86352539 C5.78852748 61.02874703 4.25047947 55.24945617 2.5 49.5 C-0.46331525 39.75187237 -2.84661599 29.8596411 -5.27050781 19.96630859 C-6.49831735 14.97370958 -7.74954632 9.98696765 -9 5 C-6.03 3.35 -3.06 1.7 0 0 Z " fill="#FDFDFE" transform="translate(285,296)"/>
<path d="M0 0 C6.5 1.625 6.5 1.625 8.63598633 2.16064453 C12.97731445 3.24840667 17.32106262 4.32535788 21.66796875 5.390625 C32.2905813 8.0044431 42.8443527 10.75659328 53.34643555 13.81982422 C60.01968741 15.75430182 66.73243679 17.45830142 73.48144531 19.10571289 C80.4232344 20.81663087 87.280557 22.77218572 94.14453125 24.76953125 C100.06703701 26.48047736 106.01150639 28.03795391 112 29.5 C121.54531365 31.83409365 130.9720625 34.51885055 140.40869141 37.25488281 C144.70221259 38.4894623 149.00687482 39.68344126 153.3125 40.875 C154.08996582 41.09027344 154.86743164 41.30554688 155.66845703 41.52734375 C157.4454535 42.0188967 159.22269614 42.50955962 161 43 C160.301897 47.50276432 158.71324524 51.55578171 157 55.75 C156.72671875 56.43449219 156.4534375 57.11898437 156.171875 57.82421875 C154.13600498 62.86399502 154.13600498 62.86399502 153 64 C151.24294618 63.9577123 149.48582334 63.91000691 147.72998047 63.83227539 C138.77455887 63.49233654 132.08989091 64.4310361 125.16796875 70.64453125 C120.10803527 76.09842549 117.37517536 82.10309108 117.64453125 89.59375 C118.45314471 95.06744111 120.31219608 100.31219608 124.25 104.25 C126 106 126 106 126.484375 108.6484375 C125.78791153 113.4675154 123.23734487 115.88245903 120 119.375 C119.42765625 120.01566406 118.8553125 120.65632813 118.265625 121.31640625 C116.85690119 122.88948117 115.43016769 124.44639522 114 126 C109.90047 125.46947782 108.01048077 123.38060243 105.15313721 120.51390076 C104.68011099 120.04343781 104.20708477 119.57297486 103.71972442 119.08825547 C102.13568455 117.50915909 100.56260885 115.91957526 98.98925781 114.32983398 C97.85632167 113.19605169 96.72272465 112.06292946 95.58851624 110.93041992 C92.50978321 107.85254875 89.44039685 104.76550572 86.37257862 101.67676044 C83.16550857 98.45095533 79.9499589 95.23362597 76.73529053 92.01539612 C70.64847294 85.91924875 64.56934401 79.81549335 58.49292541 73.70898253 C51.57505875 66.75760093 44.64868661 59.81472101 37.72157907 52.87254989 C23.47155348 38.59115414 9.23226845 24.29909043 -5 10 C-3.35 6.7 -1.7 3.4 0 0 Z " fill="#FDFDFE" transform="translate(301,276)"/>
<path d="M0 0 C3.96 0 7.92 0 12 0 C12.29132813 1.20011719 12.58265625 2.40023438 12.8828125 3.63671875 C15.0904224 12.64259754 17.40833153 21.59647273 20 30.5 C22.21785164 38.12148571 24.22334561 45.76983523 26.10546875 53.48046875 C27.59664332 59.53064839 29.25908485 65.51726112 31 71.5 C33.21777902 79.12150457 35.22334529 86.76983394 37.10546875 94.48046875 C38.59664488 100.5306547 40.25921318 106.51721965 42 112.5 C44.25332761 120.24931876 46.31885879 128.02506657 48.23291016 135.86499023 C49.18288708 139.75257011 50.15725963 143.62593447 51.234375 147.48046875 C51.42692871 148.17285645 51.61948242 148.86524414 51.81787109 149.57861328 C52.33796538 151.43062299 52.86783008 153.27988116 53.3984375 155.12890625 C54 158 54 158 53 161 C50.27261765 161.53224551 47.54379566 162.05107996 44.8125 162.5625 C43.65911133 162.78969727 43.65911133 162.78969727 42.48242188 163.02148438 C34.40535385 164.51210208 34.40535385 164.51210208 31 163 C29.4453125 160.48828125 29.4453125 160.48828125 28.125 157.3125 C24.82652486 150.20938986 21.39959012 146.92429629 14.6875 143.125 C7.44184462 140.91446107 0.91489956 141.18253732 -5.8984375 144.61328125 C-12.12114898 148.71934551 -15.56307645 154.24367821 -17.8828125 161.21484375 C-19 163 -19 163 -21.10546875 163.83984375 C-24.93073708 164.05149827 -28.46251807 163.39359356 -32.1875 162.625 C-32.91130859 162.48578125 -33.63511719 162.3465625 -34.38085938 162.203125 C-39.68632392 161.15683804 -39.68632392 161.15683804 -42 160 C-40.4743004 151.47840956 -38.57989861 143.24693669 -36.0480957 134.97290039 C-34.1512797 128.69849351 -32.55823019 122.36605596 -31 116 C-29.14552684 108.43900259 -27.16216001 100.95831899 -24.89453125 93.51171875 C-23.05709254 87.39082418 -21.52246517 81.20578441 -20 75 C-18.14508483 67.43910214 -16.16216649 59.95834029 -13.89453125 52.51171875 C-11.75192675 45.37425279 -10.01498471 38.14128137 -8.24145508 30.9050293 C-6.52757031 23.96560153 -4.6520893 17.09865007 -2.56054688 10.26367188 C-1.51387189 6.83466596 -0.7063066 3.53153301 0 0 Z " fill="#FDFDFE" transform="translate(250,306)"/>
<path d="M0 0 C1.96278346 4.25965773 2.71174467 8.51220736 3.3125 13.125 C3.47975586 14.19814453 3.47975586 14.19814453 3.65039062 15.29296875 C4.33238726 20.46840421 4.33238726 20.46840421 2.83984375 22.85546875 C0.70616804 24.18278719 -1.44100545 25.19434551 -3.75 26.1875 C-10.13684335 29.28754677 -14.26686985 33.53373971 -17.4375 39.875 C-19.04249499 48.79163884 -18.19603937 55.39668163 -13 63 C-9.01533103 67.60758248 -4.53412619 69.90108582 1.1796875 71.84765625 C3 73 3 73 3.84765625 75.0703125 C4.05873633 79.12954487 3.34516073 82.83924787 2.5625 86.8125 C2.41490234 87.60076172 2.26730469 88.38902344 2.11523438 89.20117188 C1.75177937 91.13569046 1.37701238 93.0680778 1 95 C-2.33719971 96.11000146 -4.45184441 95.86939791 -7.82421875 94.9609375 C-8.76128662 94.71279297 -9.69835449 94.46464844 -10.66381836 94.20898438 C-11.6616333 93.93376953 -12.65944824 93.65855469 -13.6875 93.375 C-14.72334229 93.09720703 -15.75918457 92.81941406 -16.82641602 92.53320312 C-23.39459731 90.75799154 -29.92232673 88.86575849 -36.43432617 86.89599609 C-43.60839266 84.75694347 -50.8763486 83.01178779 -58.14526367 81.22827148 C-63.89432156 79.80747768 -69.58726982 78.29436114 -75.25 76.5625 C-82.76664237 74.26699844 -90.36935782 72.37749195 -98 70.5 C-106.28618965 68.46121296 -114.50971466 66.34641456 -122.66943359 63.8503418 C-129.95012385 61.65309792 -137.33300637 59.86449244 -144.71777344 58.05444336 C-149.84425126 56.79746226 -154.93780255 55.49597152 -160 54 C-160 50.04 -160 46.08 -160 42 C-158.79988281 41.70867187 -157.59976562 41.41734375 -156.36328125 41.1171875 C-147.35740246 38.9095776 -138.40352727 36.59166847 -129.5 34 C-122.69771391 32.02053538 -115.88239768 30.17997133 -109 28.5 C-102.20061171 26.84016502 -95.46890329 25.02260111 -88.75 23.0625 C-80.20024468 20.57041885 -71.59977253 18.3730384 -62.95117188 16.25244141 C-55.47132745 14.40418198 -48.07188818 12.34504671 -40.67651367 10.1862793 C-33.7526767 8.17865102 -26.78486731 6.40523705 -19.7824707 4.69433594 C-14.72355885 3.45274714 -9.73057508 2.10168913 -4.77734375 0.48046875 C-3 0 -3 0 0 0 Z " fill="#FDFDFE" transform="translate(466,208)"/>
<path d="M0 0 C5.78591314 0.83215333 11.4001745 2.26471236 17.0625 3.6875 C18.12307617 3.95296631 19.18365234 4.21843262 20.27636719 4.49194336 C28.01257317 6.44906735 35.68395256 8.58488296 43.34399414 10.8190918 C50.01804916 12.75386615 56.73160778 14.45809907 63.48144531 16.10571289 C70.4232344 17.81663087 77.280557 19.77218572 84.14453125 21.76953125 C90.06702424 23.48047367 96.0114466 25.03822712 102 26.5 C108.88241004 28.17995836 115.69765591 30.02072473 122.5 32 C131.87869967 34.72739414 141.31424275 37.15165964 150.80322266 39.46289062 C154.20562833 40.29477465 157.60264319 41.14775542 161 42 C161 45.96 161 49.92 161 54 C159.68128906 54.30292969 158.36257812 54.60585938 157.00390625 54.91796875 C147.71481634 57.07640059 138.51138812 59.34810285 129.38696289 62.1237793 C123.22334289 63.98090197 117.00228744 65.54882442 110.73999023 67.03710938 C105.4203819 68.32315614 100.17708186 69.81780284 94.93359375 71.3828125 C87.08282815 73.72133842 79.18700937 75.81779652 71.24542236 77.82333374 C67.44158719 78.78463569 63.64080489 79.75787607 59.83984375 80.73046875 C59.08401001 80.92371231 58.32817627 81.11695587 57.54943848 81.3160553 C50.72950543 83.06272621 43.92321288 84.85804627 37.125 86.6875 C35.57304932 87.10394775 35.57304932 87.10394775 33.98974609 87.52880859 C28.94436742 88.89353556 23.91908673 90.30754074 18.91015625 91.80078125 C17.94384277 92.08671143 16.9775293 92.3726416 15.98193359 92.66723633 C14.17830941 93.20473083 12.37757051 93.75205054 10.58056641 94.3112793 C6.38236747 95.56411159 3.31068963 96.46895711 -1 95 C-1.53224551 92.27261765 -2.05107996 89.54379566 -2.5625 86.8125 C-2.71396484 86.04357422 -2.86542969 85.27464844 -3.02148438 84.48242188 C-4.51210208 76.40535385 -4.51210208 76.40535385 -3 73 C-0.48828125 71.4453125 -0.48828125 71.4453125 2.6875 70.125 C9.79061014 66.82652486 13.07570371 63.39959012 16.875 56.6875 C18.95331413 49.87524814 18.91600223 44.28697684 15.9375 37.75 C11.8337811 30.41618302 6.68831397 26.83279849 -1.1796875 24.15234375 C-3 23 -3 23 -3.84375 20.890625 C-4.05040442 17.06751819 -3.39316213 13.53539101 -2.625 9.8125 C-2.48578125 9.08869141 -2.3465625 8.36488281 -2.203125 7.61914062 C-1.15683804 2.31367608 -1.15683804 2.31367608 0 0 Z " fill="#FDFEFE" transform="translate(46,208)"/>
<path d="M0 0 C1.5546875 2.51171875 1.5546875 2.51171875 2.875 5.6875 C6.17347514 12.79061014 9.60040988 16.07570371 16.3125 19.875 C23.12475186 21.95331413 28.71302316 21.91600223 35.25 18.9375 C42.58381698 14.8337811 46.16720151 9.68831397 48.84765625 1.8203125 C50 0 50 0 52.0703125 -0.84765625 C56.12954487 -1.05873633 59.83924787 -0.34516073 63.8125 0.4375 C64.60076172 0.58509766 65.38902344 0.73269531 66.20117188 0.88476562 C68.13569046 1.24822063 70.0680778 1.62298762 72 2 C73.19964978 5.59894934 72.70342263 7.0378558 71.77734375 10.6796875 C71.48907715 11.82566406 71.20081055 12.97164062 70.90380859 14.15234375 C70.42548584 15.99505859 70.42548584 15.99505859 69.9375 17.875 C69.61604004 19.13699219 69.29458008 20.39898437 68.96337891 21.69921875 C66.82436217 30.02335681 64.54200312 38.29752622 62.13061523 46.54638672 C60.20834827 53.15221643 58.52530637 59.79963127 56.89404297 66.48242188 C55.18321473 73.42388592 53.22772001 80.28088096 51.23046875 87.14453125 C49.51952633 93.06702424 47.96177288 99.0114466 46.5 105 C44.60449949 112.76543756 42.47667722 120.44102198 40.23706055 128.11376953 C38.20163698 135.14284439 36.40073936 142.21585998 34.73632812 149.34179688 C33.580482 154.16252096 32.08292526 158.49800016 30 163 C26.7 163 23.4 163 20 163 C17.17919205 157.04125184 15.64138585 151.02605831 14.125 144.625 C12.4219047 137.61454772 10.6802498 130.64716195 8.5625 123.75 C5.89477688 115.0182783 3.76919948 106.15837473 1.58837891 97.29492188 C-0.15843504 90.23920087 -2.03077722 83.25833041 -4.15625 76.30859375 C-6.29328958 69.22703123 -8.00776122 62.04448235 -9.76977539 54.86230469 C-11.21171887 49.02795819 -12.74961256 43.24905032 -14.5 37.5 C-16.65623256 30.40789875 -18.51276571 23.25294787 -20.3125 16.0625 C-20.57933594 15.0003125 -20.84617188 13.938125 -21.12109375 12.84375 C-23 5.25890214 -23 5.25890214 -23 3 C-19.19231023 1.31637598 -15.609874 0.45106687 -11.5 -0.1875 C-10.3965625 -0.36667969 -9.293125 -0.54585937 -8.15625 -0.73046875 C-5.00832237 -0.9992893 -2.93711361 -1.17080817 0 0 Z " fill="#FDFEFE" transform="translate(231,43)"/>
<path d="M0 0 C10.83978107 6.93948601 18.54348333 15.95458979 22.90625 28.26171875 C23.97408109 33.15100093 24.21485168 37.81880196 24.25 42.8125 C24.25644531 43.6792334 24.26289063 44.5459668 24.26953125 45.43896484 C24.03044885 57.55170675 19.42232815 68.56263703 11.33203125 77.62890625 C-1.78672415 90.0350379 -14.17764593 92.83943302 -31.6015625 92.3984375 C-34.52085605 92.30415615 -36.44295857 92.06068048 -39.25 91.125 C-39.25 90.465 -39.25 89.805 -39.25 89.125 C-38.46496094 88.76148438 -37.67992187 88.39796875 -36.87109375 88.0234375 C-23.08719516 81.42746149 -14.40682752 72.69013622 -9.12890625 58.0234375 C-8.02277491 53.11713049 -7.78136718 48.45492414 -7.75 43.4375 C-7.74363525 42.57084717 -7.73727051 41.70419434 -7.73071289 40.8112793 C-7.98438844 27.89588527 -13.21903642 16.36121275 -22.25 7.125 C-27.56922132 2.91319336 -32.88072865 -0.52113885 -39.25 -2.875 C-39.25 -3.535 -39.25 -4.195 -39.25 -4.875 C-26.3654142 -8.51669262 -11.44641383 -6.55045511 0 0 Z " fill="#4F66D0" transform="translate(281.25,212.875)"/>
</svg>
