<svg width="18" height="18" viewBox="0 0 18 18" fill="none" xmlns="http://www.w3.org/2000/svg">
<path d="M15.9525 6.88522C15.735 6.54022 15.5025 6.21772 15.2625 5.91772C14.985 5.56522 14.46 5.53522 14.145 5.85022L11.895 8.10022C12.06 8.59522 12.09 9.16522 11.94 9.75772C11.6775 10.8152 10.8225 11.6702 9.76499 11.9327C9.17249 12.0827 8.60249 12.0527 8.10749 11.8877C8.10749 11.8877 7.03499 12.9602 6.26249 13.7327C5.88749 14.1077 6.00749 14.7677 6.50999 14.9627C7.31249 15.2702 8.14499 15.4277 8.99999 15.4277C10.335 15.4277 11.6325 15.0377 12.8175 14.3102C14.025 13.5602 15.1125 12.4577 15.99 11.0552C16.7025 9.92272 16.665 8.01772 15.9525 6.88522Z" fill="#D3D3D3"/>
<path d="M10.515 7.48498L7.48501 10.515C7.10251 10.125 6.85501 9.58498 6.85501 8.99998C6.85501 7.82248 7.81501 6.85498 9.00001 6.85498C9.58501 6.85498 10.125 7.10248 10.515 7.48498Z" fill="#D3D3D3"/>
<path d="M13.6875 4.31227L11.145 6.85477C10.5975 6.29977 9.84 5.96977 9 5.96977C7.32 5.96977 5.97 7.32727 5.97 8.99977C5.97 9.83977 6.3075 10.5973 6.855 11.1448L4.32 13.6873H4.3125C3.48 13.0123 2.715 12.1498 2.0625 11.1298C1.3125 9.95227 1.3125 8.03977 2.0625 6.86227C2.9325 5.49727 3.9975 4.42477 5.1825 3.68977C6.3675 2.96977 7.665 2.57227 9 2.57227C10.6725 2.57227 12.2925 3.18727 13.6875 4.31227Z" fill="#D3D3D3"/>
<path d="M11.145 9.00006C11.145 10.1776 10.185 11.1451 9 11.1451C8.955 11.1451 8.9175 11.1451 8.8725 11.1301L11.13 8.87256C11.145 8.91756 11.145 8.95506 11.145 9.00006Z" fill="#D3D3D3"/>
<path d="M16.3275 1.67266C16.1025 1.44766 15.735 1.44766 15.51 1.67266L1.6725 15.5177C1.4475 15.7427 1.4475 16.1102 1.6725 16.3352C1.785 16.4402 1.9275 16.5002 2.0775 16.5002C2.2275 16.5002 2.37 16.4402 2.4825 16.3277L16.3275 2.48266C16.56 2.25766 16.56 1.89766 16.3275 1.67266Z" fill="#D3D3D3"/>
</svg>
