<svg width="18" height="18" viewBox="0 0 18 18" fill="none" xmlns="http://www.w3.org/2000/svg">
<path d="M15.9375 6.86227C14.205 4.13977 11.67 2.57227 9 2.57227C7.665 2.57227 6.3675 2.96227 5.1825 3.68977C3.9975 4.42477 2.9325 5.49727 2.0625 6.86227C1.3125 8.03977 1.3125 9.95227 2.0625 11.1298C3.795 13.8598 6.33 15.4198 9 15.4198C10.335 15.4198 11.6325 15.0298 12.8175 14.3023C14.0025 13.5673 15.0675 12.4948 15.9375 11.1298C16.6875 9.95977 16.6875 8.03977 15.9375 6.86227ZM9 12.0298C7.32 12.0298 5.97 10.6723 5.97 8.99977C5.97 7.32727 7.32 5.96977 9 5.96977C10.68 5.96977 12.03 7.32727 12.03 8.99977C12.03 10.6723 10.68 12.0298 9 12.0298Z" fill="#D3D3D3"/>
<path d="M8.99993 6.85547C7.82243 6.85547 6.86243 7.81547 6.86243 9.00047C6.86243 10.178 7.82243 11.138 8.99993 11.138C10.1774 11.138 11.1449 10.178 11.1449 9.00047C11.1449 7.82297 10.1774 6.85547 8.99993 6.85547Z" fill="#D3D3D3"/>
</svg>
